<svg xmlns="http://www.w3.org/2000/svg" xmlns:xlink="http://www.w3.org/1999/xlink" width="20" height="20" viewBox="0 0 20 20">
  <defs>
    <clipPath id="clip-path">
      <rect id="사각형_1243" data-name="사각형 1243" width="16" height="14.971" fill="none"/>
    </clipPath>
  </defs>
  <g id="그룹_5073" data-name="그룹 5073" transform="translate(-1526 -5862)">
    <rect id="사각형_1238" data-name="사각형 1238" width="20" height="20" transform="translate(1526 5862)" fill="none"/>
    <g id="그룹_5089" data-name="그룹 5089" transform="translate(1528 5864.515)">
      <g id="그룹_5088" data-name="그룹 5088" transform="translate(0 0)" clip-path="url(#clip-path)">
        <path id="패스_22190" data-name="패스 22190" d="M12.889,2.714c.287,1.492-.394,2.877-1.519,3.094S9.1,4.99,8.813,3.5,9.206.62,10.332.4s2.271.819,2.557,2.311" transform="translate(-0.392 -0.016)" fill="#f2b8b8"/>
        <path id="패스_22191" data-name="패스 22191" d="M12.889,2.714c.287,1.492-.394,2.877-1.519,3.094S9.1,4.99,8.813,3.5,9.206.62,10.332.4,12.6,1.222,12.889,2.714Z" transform="translate(-0.392 -0.016)" fill="none" stroke="#707070" stroke-linecap="round" stroke-linejoin="round" stroke-width="0.75"/>
        <path id="패스_22192" data-name="패스 22192" d="M16,8.588a2.229,2.229,0,0,1-2.592,1.679,2.228,2.228,0,0,1-.9-2.954A2.228,2.228,0,0,1,15.1,5.635,2.227,2.227,0,0,1,16,8.588" transform="translate(-0.551 -0.248)" fill="#f2b8b8"/>
        <path id="패스_22193" data-name="패스 22193" d="M16,8.588a2.229,2.229,0,0,1-2.592,1.679,2.228,2.228,0,0,1-.9-2.954A2.228,2.228,0,0,1,15.1,5.635,2.227,2.227,0,0,1,16,8.588Z" transform="translate(-0.551 -0.248)" fill="none" stroke="#707070" stroke-linecap="round" stroke-linejoin="round" stroke-width="0.75"/>
        <path id="패스_22194" data-name="패스 22194" d="M3.664,2.714c-.287,1.492.394,2.877,1.519,3.094S7.453,4.99,7.74,3.5,7.346.62,6.221.4,3.95,1.222,3.664,2.714" transform="translate(-0.161 -0.016)" fill="#f2b8b8"/>
        <path id="패스_22195" data-name="패스 22195" d="M3.664,2.714c-.287,1.492.394,2.877,1.519,3.094S7.453,4.99,7.74,3.5,7.346.62,6.221.4,3.95,1.222,3.664,2.714Z" transform="translate(-0.161 -0.016)" fill="none" stroke="#707070" stroke-linecap="round" stroke-linejoin="round" stroke-width="0.75"/>
        <path id="패스_22196" data-name="패스 22196" d="M.569,8.588a2.229,2.229,0,0,0,2.592,1.679,2.228,2.228,0,0,0,.9-2.954A2.228,2.228,0,0,0,1.471,5.635a2.227,2.227,0,0,0-.9,2.954" transform="translate(-0.017 -0.248)" fill="#f2b8b8"/>
        <path id="패스_22197" data-name="패스 22197" d="M.569,8.588a2.229,2.229,0,0,0,2.592,1.679,2.228,2.228,0,0,0,.9-2.954A2.228,2.228,0,0,0,1.471,5.635,2.227,2.227,0,0,0,.569,8.588Z" transform="translate(-0.017 -0.248)" fill="none" stroke="#707070" stroke-linecap="round" stroke-linejoin="round" stroke-width="0.75"/>
        <path id="패스_22198" data-name="패스 22198" d="M13.076,12.268a1.435,1.435,0,0,0-.542-.806A13.769,13.769,0,0,1,9.918,8.829a2.391,2.391,0,0,0-1.774-.911H8.137a2.392,2.392,0,0,0-1.775.911,13.769,13.769,0,0,1-2.616,2.633,1.435,1.435,0,0,0-.542.806,2.274,2.274,0,0,0,1.644,2.649,2.839,2.839,0,0,0,1.532-.153A5.287,5.287,0,0,1,7.8,14.423c.114,0,.227,0,.341,0s.226,0,.34,0a5.287,5.287,0,0,1,1.419.341,2.839,2.839,0,0,0,1.532.153,2.273,2.273,0,0,0,1.644-2.649" transform="translate(-0.141 -0.354)" fill="#ffede1"/>
        <path id="패스_22199" data-name="패스 22199" d="M13.076,12.268a1.435,1.435,0,0,0-.542-.806A13.769,13.769,0,0,1,9.918,8.829a2.391,2.391,0,0,0-1.774-.911H8.137a2.392,2.392,0,0,0-1.775.911,13.769,13.769,0,0,1-2.616,2.633,1.435,1.435,0,0,0-.542.806,2.274,2.274,0,0,0,1.644,2.649,2.839,2.839,0,0,0,1.532-.153A5.287,5.287,0,0,1,7.8,14.423c.114,0,.227,0,.341,0s.226,0,.34,0a5.287,5.287,0,0,1,1.419.341,2.839,2.839,0,0,0,1.532.153A2.273,2.273,0,0,0,13.076,12.268Z" transform="translate(-0.141 -0.354)" fill="none" stroke="#707070" stroke-linecap="round" stroke-linejoin="round" stroke-width="0.75"/>
      </g>
    </g>
  </g>
</svg>
