<svg xmlns="http://www.w3.org/2000/svg" width="80" height="80" viewBox="0 0 80 80">
  <g id="그룹_5194" data-name="그룹 5194" transform="translate(-364)">
    <rect id="사각형_1199" data-name="사각형 1199" width="80" height="80" transform="translate(364)" fill="none"/>
    <path id="패스_21785" data-name="패스 21785" d="M5,4.2A1.2,1.2,0,0,1,6.2,3H27.8a1.2,1.2,0,1,1,0,2.4H6.2A1.2,1.2,0,0,1,5,4.2Zm1.2,8.4a1.2,1.2,0,1,0,0,2.4H27.8a1.2,1.2,0,1,0,0-2.4Zm0,9.6a1.2,1.2,0,1,0,0,2.4H27.8a1.2,1.2,0,1,0,0-2.4Z" transform="translate(387 26.2)"/>
  </g>
</svg>
